<svg width="127" height="57" viewBox="0 0 127 57" fill="none" xmlns="http://www.w3.org/2000/svg">
<g id="iU" clip-path="url(#clip0_2335_1693)">
<path id="Vector" d="M83.4655 39.5982C83.4655 43.0685 83.6667 43.5128 85.3013 43.6637L86.2401 43.7643C86.6341 44.066 86.6341 45.206 86.1898 45.4994C84.4547 45.3988 82.5267 45.3485 80.2467 45.3485C77.9667 45.3485 75.9382 45.3988 74.3036 45.4994C73.8594 45.206 73.8594 44.066 74.2533 43.7643L75.1922 43.6637C76.8267 43.5128 77.0279 43.0685 77.0279 39.5982V32.1128C77.0279 30.1262 77.0279 29.5394 76.0891 28.9443L75.3933 28.5C75.0497 28.2066 75.0497 27.3097 75.3933 27.0163C77.7236 26.3709 81.2442 25.0381 82.7279 24.1412C83.1219 24.1412 83.4236 24.2921 83.6164 24.5855C83.5158 26.0691 83.4655 28.2485 83.4655 30.4782V39.5982ZM84.2367 17.2006C84.2367 19.8243 82.2082 21.199 80.1294 21.199C77.7236 21.199 76.2986 19.556 76.2986 17.3096C76.2986 14.9038 78.2182 13.3112 80.406 13.3112C82.7028 13.3112 84.2367 15.0044 84.2367 17.2006Z" fill="black"/>
<path id="Vector_2" d="M95.1756 19.7824C95.1756 15.1721 94.8823 14.8787 92.6442 14.426L91.4036 14.1746C91.0096 13.8812 90.9593 12.7831 91.5042 12.4897C93.8848 12.5903 96.3576 12.6406 98.7381 12.6406C101.119 12.6406 103.592 12.5903 105.972 12.4897C106.366 12.7831 106.366 13.8812 105.972 14.1746L104.782 14.3757C102.552 14.7697 102.259 15.1721 102.259 19.774V31.2243C102.259 37.0249 102.904 43.4122 110.432 43.4122C116.777 43.4122 118.705 37.8631 118.705 31.0734V25.08C118.705 21.0649 118.504 17.3012 117.959 16.0103C117.515 14.9709 116.425 14.6691 115.084 14.426L113.743 14.1746C113.349 13.7806 113.449 12.7831 113.743 12.4897C116.417 12.5903 118.353 12.6406 120.381 12.6406C122.217 12.6406 124.053 12.5903 125.931 12.4897C126.224 12.7831 126.324 13.7806 125.931 14.1746L125.042 14.3757C123.751 14.6691 122.812 14.9709 122.368 16.0103C121.823 17.3012 121.622 21.0649 121.622 25.08V30.6291C121.622 35.2897 121.178 39.5479 118.453 42.574C116.274 44.9043 112.653 46.1449 108.638 46.1449C104.874 46.1449 101.504 45.5497 98.822 43.3703C96.2486 41.2412 95.1505 37.5697 95.1505 32.1715V19.7824H95.1756Z" fill="black"/>
<path id="Vector_3" fill-rule="evenodd" clip-rule="evenodd" d="M56.0301 2.59853C55.9798 2.46441 55.8289 2.43088 55.7619 2.3303C55.3847 1.77706 54.9488 1.22383 54.4374 0.81309C54.3788 0.754414 54.3536 0.771179 54.2698 0.787943C54.2447 0.720885 54.2195 0.653826 54.1944 0.595149C54.077 0.56162 53.9094 0.628679 53.8004 0.595149C53.3645 0.444267 52.8532 0.067061 52.3586 0.00838455C52.1575 -0.0167625 51.9814 0.0502963 51.797 0.00838455C51.4282 0.352061 50.8247 0.293385 50.3972 0.402355C50.1457 0.469414 48.8548 1.39147 48.6788 1.62618C48.4692 1.91956 48.4105 2.35544 48.2597 2.63206C48.3183 2.68236 48.268 2.64883 48.3351 2.65721C47.6477 3.7553 48.1423 6.27 49.2655 7.16691C49.6595 7.47706 50.1373 7.59441 50.5145 7.80397C50.6319 7.87103 50.7576 8.11412 50.8833 8.14765C50.8833 8.14765 52.5682 8.27338 52.5766 8.27338C53.7836 7.87103 54.6805 7.27588 55.5858 6.4125C55.6529 6.34544 55.6277 6.27838 55.611 6.16941C56.005 6.02691 56.005 5.415 56.0972 5.07133C56.1391 4.93721 56.2816 4.76118 56.29 4.62706C56.3402 4.10736 56.1894 3.11824 56.0217 2.6153L56.0301 2.59853ZM51.9227 6.00177C51.5958 5.95985 51.1683 5.93471 50.942 5.73353C50.0786 4.97912 49.6679 3.35294 50.8163 2.62368C51.1683 2.40574 51.5875 2.38897 51.8222 2.22971C52.7945 2.36383 53.4567 2.43088 53.8507 3.47868C53.9513 3.73853 54.0854 3.86427 54.0183 4.19118C54.0854 4.24147 54.1525 4.29177 54.2111 4.34206C53.5489 5.28088 53.1885 6.1778 51.906 6.01015L51.9227 6.00177ZM1.5448 7.47706C1.70407 7.51059 1.85495 7.54412 2.01421 7.57765C2.07289 7.66985 2.13157 7.75368 2.19024 7.84588C2.38304 7.85427 2.58421 7.86265 2.77701 7.87103C2.98657 8.02191 3.61524 8.07221 3.88348 8.11412C4.09304 8.14765 4.54568 8.0303 4.73848 7.98838C5.18274 7.90456 5.57671 7.90456 6.03774 7.66985C7.18612 7.08309 8.20039 5.415 7.97407 4.04868C7.92377 3.72177 8.0076 3.21044 7.82318 2.85C6.88436 0.972355 6.20539 0.56162 4.26068 0.176032C4.15171 0.13412 4.14333 0.0922081 4.06789 0.0251493C3.84157 0.167649 3.62362 0.041914 3.33024 0.150885C2.55907 0.435885 1.41068 0.804708 0.907742 1.50044C-0.492111 3.41162 -0.642994 4.76956 0.807153 6.57177C0.941271 6.73103 1.39392 7.41 1.5448 7.47706ZM2.89436 2.72427C2.97818 2.67397 3.02009 2.57338 3.06201 2.48118C3.40568 2.4728 3.53142 2.33868 3.74936 2.28838C3.95054 2.23809 4.17686 2.32191 4.38642 2.23809C4.74686 2.43927 5.09054 2.46441 5.3923 2.74941C6.03774 3.37809 6.25568 4.80309 5.3923 5.54074C5.26657 5.39824 5.14921 5.76706 5.04862 5.75868C4.73848 5.74191 4.3026 6.14427 3.64877 6.00177C2.60098 5.77544 2.31598 5.17191 1.83818 4.33368C2.09804 3.71338 2.23215 2.98412 2.89436 2.71588V2.72427ZM27.0355 8.25662C27.2116 8.08059 27.7564 8.30691 27.8402 8.33206C28.0079 8.37397 28.888 8.18956 29.0138 8.08897C29.0305 8.03868 29.0473 7.98838 29.0641 7.93809C29.2485 7.89618 29.4413 7.85427 29.6257 7.81235C30.3801 7.45191 30.9417 6.92383 31.386 6.21971C31.5285 5.99338 32.0566 5.17191 31.8973 4.94559C31.9644 4.845 32.1488 3.44515 32.0901 3.3278C32.0063 3.15177 32.0733 3.03441 31.9895 2.85838C31.5536 1.97824 30.9752 1.0478 30.1286 0.511326C30.028 0.511326 29.9358 0.494561 29.8352 0.486179C29.5 0.335296 29.1563 0.150885 28.7372 0.067061C28.4522 0.0502963 28.1672 0.0335316 27.8822 0.0167669C27.748 0.10059 27.4798 0.0335316 27.2954 0.0922081C26.8344 0.24309 26.2057 0.318532 25.6776 0.678973C25.4177 0.855002 25.2752 1.20706 25.0908 1.45853C24.8813 1.73515 24.6633 2.01177 24.4538 2.28838C23.9927 3.67985 23.8083 5.62456 24.9651 6.91544C25.577 7.59441 26.323 7.79559 27.0188 8.23985L27.0355 8.25662ZM26.3314 4.02353V3.46191C26.4152 3.26074 26.9098 2.51471 27.0691 2.38059C27.1194 2.43927 27.6223 2.17103 27.6307 2.16265C28.4019 2.33868 28.7791 2.08721 29.3239 2.53147C30.7405 3.67985 29.785 5.54912 28.318 6.0353C27.7061 6.23647 26.7757 5.93471 26.432 5.39824C26.323 5.23059 26.3566 5.05456 26.2811 4.91206C26.2392 4.81986 26.1219 4.56838 26.1386 4.44265C26.1638 4.275 26.2979 4.14927 26.3314 4.02353ZM0.220389 29.8076C0.304212 30.034 0.312595 30.2016 0.463477 30.3944C0.480242 30.4196 0.605977 30.4531 0.605977 30.4699C0.647889 30.5453 0.589212 30.7213 0.656271 30.8135C0.807153 30.9141 0.949654 31.0063 1.10054 31.1069C1.12568 31.1824 1.15083 31.2578 1.17598 31.3249C1.51965 31.5847 2.02259 31.7943 2.27407 31.9871C2.43333 32.1128 2.58421 32.2301 2.74348 32.3559C3.12068 32.5235 3.6823 32.4481 3.9673 32.4816C4.40318 32.5235 4.93127 32.6074 5.29171 32.4816C5.50965 32.4062 5.66892 32.1631 5.85333 32.0625C5.97068 32.0206 6.07965 31.9787 6.19701 31.9368C6.28083 31.8529 6.19701 31.7775 6.2473 31.6937C6.31436 31.6601 6.38142 31.6266 6.4401 31.5931C6.49039 31.5009 6.54068 31.4171 6.59098 31.3249C6.69157 31.2997 6.78377 31.2746 6.88436 31.2494L6.90951 31.2243C7.0101 31.1069 7.0101 30.8974 7.08554 30.7549C7.22804 30.4782 7.46274 30.3106 7.59686 30.0172C7.61363 30.0172 7.63039 30.0004 7.64715 29.9921C7.9573 28.9694 7.94892 27.5696 7.57171 26.5637C7.51304 26.4882 7.45436 26.4212 7.40407 26.3457V26.0775C7.28671 25.8512 7.06877 25.8176 6.89274 25.6584C6.79215 25.4907 6.69995 25.3315 6.59936 25.1722C6.18024 24.8872 5.73598 24.7447 5.27495 24.4849C5.22465 24.4262 5.17436 24.3675 5.12407 24.3172C4.84745 24.2166 4.14333 24.2585 3.8248 24.2166C3.48951 24.4765 2.8273 24.1663 2.35789 24.4094C1.39392 24.9124 0.689801 25.65 0.178477 26.614C-0.00593486 26.966 -0.0143172 27.5612 -0.114905 27.8629C-0.056229 27.9132 -0.106523 27.8797 -0.0394643 27.8881C-0.324464 28.3994 0.0275946 29.246 0.228771 29.7993L0.220389 29.8076ZM2.18186 27.3851C2.27407 27.3265 2.35789 27.2678 2.45009 27.2091C2.58421 27.0331 2.63451 26.7984 2.81892 26.6726C3.08715 26.4882 3.59848 26.5301 3.87509 26.329C5.49289 26.3625 6.06289 27.9971 5.68568 29.1203C5.4426 29.4472 5.19951 29.7741 4.94804 30.101C4.83068 30.1262 4.88098 30.101 4.78039 30.0004C4.59598 30.101 4.18524 30.1681 4.11818 30.3441C3.8248 30.2603 3.75774 30.2771 3.40568 30.2938C3.13745 30.0256 2.69318 29.8915 2.47524 29.5813C2.08127 29.0281 1.74598 27.9803 2.18186 27.3768V27.3851ZM53.7082 24.5435C53.5908 24.4597 53.4819 24.3759 53.3645 24.3004C53.0125 24.2166 52.652 24.3843 52.3335 24.3004C52.2245 24.2669 52.0904 24.225 51.8892 24.225C51.5623 24.4429 51.2941 24.3256 50.9588 24.4681C50.6067 24.6274 50.1541 24.7866 49.7601 25.08C47.7902 26.5385 47.9495 29.179 49.0727 30.9812C49.2907 31.3249 49.735 31.4422 49.9277 31.811C50.0367 31.8781 50.0619 31.8865 50.196 31.8362C50.2463 31.92 50.2966 31.9954 50.3469 32.0793C50.5816 32.2637 51.1013 32.2134 51.1767 32.4732C51.5539 32.6493 52.3838 32.7582 52.7694 32.6409C53.0041 32.5738 53.3394 32.3307 53.6495 32.3978C53.6998 32.3307 53.7082 32.3391 53.7249 32.2301C54.5716 32.0877 54.3285 31.6769 54.823 31.4003C55.041 31.2746 55.1583 31.2578 55.3092 31.0818C55.4266 30.956 55.3344 30.7968 55.4098 30.6124C55.4852 30.4363 55.7535 30.4028 55.8038 30.1932C55.963 29.4556 56.0888 28.8437 56.1474 28.1815C56.1894 27.7037 55.8122 27.1672 55.9966 26.7649C55.4852 25.7674 54.7308 25.0213 53.6914 24.5351L53.7082 24.5435ZM53.8758 29.2963C53.8004 29.3131 53.7333 29.3299 53.6579 29.3466C53.616 29.4472 53.6244 29.4472 53.6579 29.5646C53.3142 30.0507 52.9873 30.2268 52.4844 30.4699C52.4005 30.4028 51.8222 30.4363 51.7048 30.3693C50.9923 29.9837 50.4475 29.3885 50.5061 28.5084C50.4307 28.4581 50.4475 28.4581 50.3636 28.4581C50.3972 28.3491 50.6151 27.821 50.3888 27.6953C50.6235 27.2929 50.8163 26.9157 51.1683 26.6391C51.2019 26.6643 51.797 26.4044 51.8305 26.3709C52.2748 26.4463 52.7777 26.4799 53.1801 26.6643C53.3226 26.7397 53.2304 26.8068 53.3058 26.8822C53.4735 27.0163 53.6495 27.1421 53.8172 27.2762C54.2111 27.7959 54.0519 28.7347 53.8926 29.2879L53.8758 29.2963ZM31.9141 26.966C31.3776 25.759 30.816 25.3901 29.8604 24.7866C29.743 24.6944 29.6341 24.6106 29.5167 24.5184C29.1395 24.4262 28.6952 24.5016 28.3683 24.4178C28.1588 24.3675 27.9576 24.2585 27.6307 24.2501C27.463 24.4932 27.2954 24.2418 27.0691 24.3507C26.8511 24.4513 26.6164 24.7531 26.4069 24.8621C26.1219 25.0046 25.9207 25.0968 25.6022 25.2812C25.5099 25.3985 25.4261 25.5075 25.3339 25.6249C25.3339 25.6249 25.3172 25.6081 25.3088 25.5997C25.1747 25.65 24.2945 26.5134 24.4035 26.7481C24.5041 26.9576 23.9508 27.754 24.0095 28.1479C24.0095 28.1479 23.9424 28.676 23.9844 28.8353C23.9844 28.8353 24.2358 30.0759 24.4035 30.3274C24.6885 30.7549 25.7363 31.9116 26.1889 32.0876H26.6332C27.5049 32.4313 28.5444 32.5403 29.5251 32.1379C29.961 31.9619 30.5897 32.0625 30.7741 31.4506H30.9669C31.5033 30.6626 31.9476 29.8328 32.2158 28.8772C32.2745 28.6593 32.241 28.1144 32.1655 27.9468C32.2997 27.7288 32.0147 27.1672 31.9225 26.966H31.9141ZM30.0532 28.9778C29.9358 29.3634 28.4689 30.495 28.0414 30.3274C27.8319 30.2435 27.5385 30.2938 27.4044 30.2016C26.2476 29.4053 25.5183 29.1371 26.4488 27.5276C26.5745 27.3097 26.7254 26.9912 26.935 26.8654C27.1277 26.7565 27.4211 26.5888 27.6726 26.5218C27.8738 26.4715 28.1504 26.5804 28.3097 26.4715C28.4773 26.5637 29.2904 26.8571 29.4077 26.9828C29.4413 27.075 29.4748 27.1588 29.5083 27.251C29.6089 27.3349 29.7514 27.2846 29.8269 27.4019C29.9275 27.6618 30.0197 27.9216 30.1202 28.1815C30.0951 28.4413 30.07 28.7012 30.0448 28.9694L30.0532 28.9778ZM7.78965 51.6521C7.59686 51.2078 7.39568 50.7719 7.20289 50.3276C6.68318 49.5565 5.73598 49.0787 4.85583 48.7099C4.50377 48.6512 4.15171 48.5925 3.79965 48.5422C3.46436 48.7015 2.61774 48.5841 2.35789 48.7601C1.62024 49.2631 0.924506 49.9001 0.497006 50.6462C0.2623 51.0485 0.337742 51.3922 0.0778887 51.7191C0.136565 51.7694 0.086271 51.7359 0.15333 51.7443C-0.257405 53.0268 0.279065 55.0721 1.32686 55.8349C1.73759 56.1366 2.1148 56.2875 2.60098 56.5474C2.64289 56.606 2.6848 56.6647 2.72671 56.7234C2.94465 56.8324 3.23804 56.7318 3.43921 56.7988C3.49789 56.8575 3.55657 56.9162 3.61524 56.9665C3.87509 57.0671 4.12657 56.9246 4.35289 56.9162C4.45348 56.9413 4.54568 56.9665 4.64627 56.9916C4.71333 56.9749 4.79715 56.8324 4.83907 56.824C4.91451 56.8491 4.98995 56.8743 5.05701 56.8994C5.1576 56.8659 5.43421 56.7653 5.52642 56.7318C5.58509 56.7066 5.92877 56.4719 5.97068 56.4132C5.99583 56.3378 6.02098 56.2624 6.04612 56.1953C6.05451 56.2037 6.45686 56.0779 6.5323 56.0444C6.7251 55.9354 6.74186 55.7259 6.87598 55.5582C6.9598 55.5247 7.04362 55.4912 7.11907 55.4577C7.30348 55.3235 7.57171 54.7032 7.58848 54.4266C7.6723 54.3763 7.7226 54.3679 7.80642 54.3512C7.88186 53.974 7.89863 53.756 8.02436 53.4207C7.89024 53.1776 7.94892 52.6747 8.04951 52.5154C7.85671 52.331 7.88186 51.8868 7.80642 51.6604L7.78965 51.6521ZM4.43671 54.7451C3.35539 55.2649 1.72083 53.3956 2.10642 52.2472C2.14833 52.1299 2.45848 51.3922 2.52554 51.3419C2.73509 51.1826 2.81054 51.2749 2.89436 50.9731C3.15421 50.8976 3.27995 50.839 3.45598 50.7049C3.9673 50.7971 4.62951 50.8474 5.02348 51.1491C5.31686 51.3671 5.50965 51.6856 5.66054 52.0544C6.18024 53.3034 5.55995 54.2087 4.43671 54.7451ZM32.132 52.264C32.1823 51.191 31.1597 50.0929 30.4388 49.4475C30.2627 49.2882 29.9861 49.2044 29.852 49.0032C29.7682 49.0368 29.6844 49.0703 29.6089 49.1038C29.4329 48.7685 28.3935 48.7434 27.9157 48.7099C27.7732 48.8691 26.7338 48.7434 26.3985 48.9278C25.4094 49.4643 24.3867 50.3444 24.0933 51.4257C24.0347 51.6437 24.0933 51.8197 24.043 51.9874C23.9844 52.1801 23.867 52.5741 24.0179 52.7921C24.0011 52.8088 23.9927 53.4375 24.0179 53.5046C24.8897 56.2121 27.5217 57.6706 30.3885 56.0025C30.4723 55.8935 30.5561 55.7929 30.6316 55.684C31.3525 55.0804 31.6877 54.6362 32.1236 53.6722C32.0901 53.6303 32.0566 53.5884 32.023 53.5465C32.3332 53.2196 32.0985 52.6747 32.1236 52.2472L32.132 52.264ZM27.4798 54.5691C27.2032 54.4601 27.1277 54.2757 26.9182 54.1249C26.7422 54.0075 26.4739 53.974 26.3566 53.8063C25.9458 53.2447 25.9123 52.2556 26.3063 51.6521C26.5494 51.2832 27.1864 50.9144 27.5804 50.8222C27.748 50.7803 27.8654 50.8641 27.9995 50.7719C28.1672 50.8557 28.6282 51.1659 28.9048 51.015C29.0892 51.2162 29.282 51.2162 29.4916 51.409C29.7598 51.6437 29.9945 52.0963 30.1286 52.3897C30.5897 53.3788 28.5779 54.9882 27.4798 54.5691ZM55.8373 50.7468C55.0829 49.1709 53.8255 48.9529 52.2329 48.735C51.8641 48.7853 51.4952 48.8356 51.1348 48.8859C50.6067 49.0871 49.9529 49.3804 49.4164 49.8415C49.2655 49.9756 48.5279 50.9815 48.4608 51.1659L48.3854 51.6353C48.2932 51.7946 47.9998 52.8088 48.1926 52.9849C48.0585 53.1274 48.3183 53.9907 48.3183 53.9907C48.3183 54.2338 48.5111 54.5607 48.7375 54.8709C49.6008 56.0947 50.4558 56.5306 51.8976 56.8072C53.8842 57.1844 56.5498 54.6529 56.181 52.5741C56.0804 52.0125 56.0972 51.3084 55.8373 50.7635V50.7468ZM53.9764 53.471C53.7082 54.259 52.5179 54.9212 51.6964 54.6949C50.3552 54.3176 49.7769 52.8926 50.6402 51.7024C50.7157 51.585 50.7911 51.476 50.8582 51.3587C51.2102 51.1156 51.4869 51.0401 51.8389 50.8474C51.9395 50.9228 52.3167 50.8474 52.3754 50.7971C52.585 50.8976 53.1047 50.7971 53.3561 50.9899C53.7333 51.2749 53.9094 51.7107 54.0938 51.9454C54.1357 52.4316 54.1441 52.9429 53.968 53.4626L53.9764 53.471Z" fill="black"/>
</g>
<defs>
<clipPath id="clip0_2335_1693">
<rect width="126.431" height="57" fill="white" transform="translate(-0.215576)"/>
</clipPath>
</defs>
</svg>
